<svg xmlns="http://www.w3.org/2000/svg" version="1.1" width="96" height="96" viewbox="0 0 96 96">
<!-- <rect x="0" y="0" width="96" height="96" fill="ligt"></rect> -->
<g transform="translate(33.5386669921875, 64.36800000000001)">
<path d="M 7.97-32.3
L 7.97-32.3
Q 7.97-32.93 8.78-33.31
L 8.78-33.31 9.7-33.31
Q 14.02-33.17 15.17-30.91
L 15.17-30.91
Q 15.22-30.82 20.16-17.06 25.1-3.31 25.15-3.22
L 25.15-3.22
Q 25.92-0.91 26.5-0.29
L 26.5-0.29
Q 26.88 0.1 26.4 0.53
L 26.4 0.53 23.14 0.53
Q 21.94-0.14 21.5-0.96
L 21.5-0.96
Q 16.99-13.2 16.99-13.3
L 16.99-13.3 14.11-9.98
Q 11.23-6.67 8.35-3.36
L 8.35-3.36 5.42 0
Q 4.85 0.58 3.98 0.58
L 3.98 0.58
Q 2.26 0.58 2.26-0.96
L 2.26-0.96
Q 2.26-1.63 2.64-2.21
L 2.64-2.21
Q 2.88-2.54 6.26-5.83 9.65-9.12 12.96-12.29
L 12.96-12.29 16.22-15.46
Q 16.22-15.5 13.82-22.18 11.42-28.85 11.23-29.38
L 11.23-29.38
Q 10.27-31.54 8.78-31.54
L 8.78-31.54
Q 8.45-31.54 8.21-31.75 7.97-31.97 7.97-32.3
Z" 
fill="teal"
transform="scale(2.2) translate(-8, 9)">
</path>
</g>
</svg>